M48
; DRILL file {KiCad 6.0.2-378541a8eb~116~ubuntu20.04.1} date Tue 22 Feb 2022 21:10:18 GMT
; FORMAT={-:-/ absolute / inch / decimal}
; #@! TF.CreationDate,2022-02-22T21:10:18+00:00
; #@! TF.GenerationSoftware,Kicad,Pcbnew,6.0.2-378541a8eb~116~ubuntu20.04.1
; #@! TF.FileFunction,NonPlated,1,2,NPTH
FMAT,2
INCH
; #@! TA.AperFunction,NonPlated,NPTH,ComponentDrill
T1C0.0256
; #@! TA.AperFunction,NonPlated,NPTH,ComponentDrill
T2C0.0472
; #@! TA.AperFunction,NonPlated,NPTH,ComponentDrill
T3C0.0709
; #@! TA.AperFunction,NonPlated,NPTH,ComponentDrill
T4C0.1260
%
G90
G05
T1
X6.9561Y-3.461
X7.2494Y-3.461
T2
X3.4264Y-3.8949
X3.4264Y-4.6449
X3.4264Y-5.3949
X3.4264Y-6.1449
X4.1764Y-3.8949
X4.1764Y-4.6449
X4.1764Y-5.3949
X4.1764Y-6.8949
X4.9264Y-3.8949
X4.9264Y-4.6449
X4.9264Y-5.3949
X4.9264Y-6.1449
X4.9264Y-6.8949
X5.6764Y-3.8949
X5.6764Y-4.6449
X5.6764Y-5.3949
X5.6764Y-6.1449
X6.4264Y-3.8949
X6.4264Y-4.6449
X6.4264Y-5.3949
X6.4264Y-6.1449
X7.1764Y-3.8949
X7.1764Y-4.6449
X7.1764Y-5.3949
X7.1764Y-6.1449
X7.9264Y-3.8949
X7.9264Y-4.6449
X7.9264Y-5.3949
X7.9264Y-6.1449
X7.9264Y-6.8949
X8.6764Y-3.8949
X8.6764Y-4.6449
X8.6764Y-5.3949
X8.6764Y-6.1449
X9.4264Y-3.8949
X9.4264Y-4.6449
X9.4264Y-5.3949
X9.4264Y-6.1449
X10.1764Y-3.8949
X10.1764Y-4.6449
X10.1764Y-5.3949
X10.1764Y-6.1449
X10.1764Y-6.8949
X10.9264Y-3.8949
X10.9264Y-4.6449
X10.9264Y-5.3949
X10.9264Y-6.1449
X10.9264Y-6.8949
X11.6764Y-3.8949
X11.6764Y-5.3949
X11.6764Y-6.1449
X11.6764Y-6.8949
X12.0514Y-4.6449
X12.4264Y-3.8949
X12.4264Y-5.7699
X12.4264Y-6.8949
T3
X3.4154Y-3.7295
X3.4154Y-4.4795
X3.4154Y-5.2295
X3.4154Y-5.9795
X3.4154Y-6.7295
X3.8484Y-3.7295
X3.8484Y-4.4795
X3.8484Y-5.2295
X3.8484Y-5.9795
X3.8484Y-6.7295
X4.1654Y-3.7295
X4.1654Y-4.4795
X4.1654Y-5.2295
X4.1654Y-6.7295
X4.5984Y-3.7295
X4.5984Y-4.4795
X4.5984Y-5.2295
X4.5984Y-6.7295
X4.9154Y-3.7295
X4.9154Y-4.4795
X4.9154Y-5.2295
X4.9154Y-5.9795
X4.9154Y-6.7295
X5.3484Y-3.7295
X5.3484Y-4.4795
X5.3484Y-5.2295
X5.3484Y-5.9795
X5.3484Y-6.7295
X5.6654Y-3.7295
X5.6654Y-4.4795
X5.6654Y-5.2295
X5.6654Y-5.9795
X6.0984Y-3.7295
X6.0984Y-4.4795
X6.0984Y-5.2295
X6.0984Y-5.9795
X6.4154Y-3.7295
X6.4154Y-4.4795
X6.4154Y-5.2295
X6.4154Y-5.9795
X6.8484Y-3.7295
X6.8484Y-4.4795
X6.8484Y-5.2295
X6.8484Y-5.9795
X7.1654Y-3.7295
X7.1654Y-4.4795
X7.1654Y-5.2295
X7.1654Y-5.9795
X7.5984Y-3.7295
X7.5984Y-4.4795
X7.5984Y-5.2295
X7.5984Y-5.9795
X7.9154Y-3.7295
X7.9154Y-4.4795
X7.9154Y-5.2295
X7.9154Y-5.9795
X7.9154Y-6.7295
X8.3484Y-3.7295
X8.3484Y-4.4795
X8.3484Y-5.2295
X8.3484Y-5.9795
X8.3484Y-6.7295
X8.6654Y-3.7295
X8.6654Y-4.4795
X8.6654Y-5.2295
X8.6654Y-5.9795
X9.0984Y-3.7295
X9.0984Y-4.4795
X9.0984Y-5.2295
X9.0984Y-5.9795
X9.4154Y-3.7295
X9.4154Y-4.4795
X9.4154Y-5.2295
X9.4154Y-5.9795
X9.8484Y-3.7295
X9.8484Y-4.4795
X9.8484Y-5.2295
X9.8484Y-5.9795
X10.1654Y-3.7295
X10.1654Y-4.4795
X10.1654Y-5.2295
X10.1654Y-5.9795
X10.1654Y-6.7295
X10.5984Y-3.7295
X10.5984Y-4.4795
X10.5984Y-5.2295
X10.5984Y-5.9795
X10.5984Y-6.7295
X10.9154Y-3.7295
X10.9154Y-4.4795
X10.9154Y-5.2295
X10.9154Y-5.9795
X10.9154Y-6.7295
X11.3484Y-3.7295
X11.3484Y-4.4795
X11.3484Y-5.2295
X11.3484Y-5.9795
X11.3484Y-6.7295
X11.6654Y-3.7295
X11.6654Y-5.2295
X11.6654Y-5.9795
X11.6654Y-6.7295
X12.0404Y-4.4795
X12.0984Y-3.7295
X12.0984Y-5.2295
X12.0984Y-5.9795
X12.0984Y-6.7295
X12.4154Y-3.7295
X12.4154Y-5.6045
X12.4154Y-6.7295
X12.4734Y-4.4795
X12.8484Y-3.7295
X12.8484Y-5.6045
X12.8484Y-6.7295
T4
X3.6319Y-3.7295
X3.6319Y-4.4795
X3.6319Y-5.2295
X3.6319Y-5.9795
X3.6319Y-6.7295
X4.3819Y-3.7295
X4.3819Y-4.4795
X4.3819Y-5.2295
X4.3819Y-6.7295
X5.1319Y-3.7295
X5.1319Y-4.4795
X5.1319Y-5.2295
X5.1319Y-5.9795
X5.1319Y-6.7295
X5.8819Y-3.7295
X5.8819Y-4.4795
X5.8819Y-5.2295
X5.8819Y-5.9795
X6.6319Y-3.7295
X6.6319Y-4.4795
X6.6319Y-5.2295
X6.6319Y-5.9795
X7.3819Y-3.7295
X7.3819Y-4.4795
X7.3819Y-5.2295
X7.3819Y-5.9795
X8.1319Y-3.7295
X8.1319Y-4.4795
X8.1319Y-5.2295
X8.1319Y-5.9795
X8.1319Y-6.7295
X8.8819Y-3.7295
X8.8819Y-4.4795
X8.8819Y-5.2295
X8.8819Y-5.9795
X9.6319Y-3.7295
X9.6319Y-4.4795
X9.6319Y-5.2295
X9.6319Y-5.9795
X10.3819Y-3.7295
X10.3819Y-4.4795
X10.3819Y-5.2295
X10.3819Y-5.9795
X10.3819Y-6.7295
X11.1319Y-3.7295
X11.1319Y-4.4795
X11.1319Y-5.2295
X11.1319Y-5.9795
X11.1319Y-6.7295
X11.8819Y-3.7295
X11.8819Y-5.2295
X11.8819Y-5.9795
X11.8819Y-6.7295
X12.2569Y-4.4795
X12.6319Y-3.7295
X12.6319Y-5.6045
X12.6319Y-6.7295
T0
M30
