%TF.GenerationSoftware,KiCad,Pcbnew,6.0.2-378541a8eb~116~ubuntu20.04.1*%
%TF.CreationDate,2022-02-22T21:10:34+00:00*%
%TF.ProjectId,Orthodox,4f727468-6f64-46f7-982e-6b696361645f,rev?*%
%TF.SameCoordinates,Original*%
%TF.FileFunction,Soldermask,Top*%
%TF.FilePolarity,Negative*%
%FSLAX46Y46*%
G04 Gerber Fmt 4.6, Leading zero omitted, Abs format (unit mm)*
G04 Created by KiCad (PCBNEW 6.0.2-378541a8eb~116~ubuntu20.04.1) date 2022-02-22 21:10:34*
%MOMM*%
%LPD*%
G01*
G04 APERTURE LIST*
%ADD10C,3.200000*%
%ADD11C,1.800000*%
%ADD12C,1.200000*%
%ADD13C,1.000000*%
%ADD14C,0.650000*%
%ADD15O,1.000000X2.000000*%
G04 APERTURE END LIST*
D10*
%TO.C,SW51*%
X92250000Y-170930000D03*
D11*
X86750000Y-170930000D03*
X97750000Y-170930000D03*
%TD*%
%TO.C,SW2*%
X105800000Y-94730000D03*
X116800000Y-94730000D03*
D12*
X106080000Y-98930000D03*
D10*
X111300000Y-94730000D03*
%TD*%
D11*
%TO.C,SW3*%
X135850000Y-94730000D03*
D12*
X125130000Y-98930000D03*
D10*
X130350000Y-94730000D03*
D11*
X124850000Y-94730000D03*
%TD*%
D12*
%TO.C,SW4*%
X144180000Y-98930000D03*
D10*
X149400000Y-94730000D03*
D11*
X143900000Y-94730000D03*
X154900000Y-94730000D03*
%TD*%
%TO.C,SW5*%
X173950000Y-94730000D03*
D12*
X163230000Y-98930000D03*
D11*
X162950000Y-94730000D03*
D10*
X168450000Y-94730000D03*
%TD*%
D11*
%TO.C,SW6*%
X193000000Y-94730000D03*
D12*
X182280000Y-98930000D03*
D10*
X187500000Y-94730000D03*
D11*
X182000000Y-94730000D03*
%TD*%
%TO.C,SW7*%
X201050000Y-94730000D03*
X212050000Y-94730000D03*
D10*
X206550000Y-94730000D03*
D12*
X201330000Y-98930000D03*
%TD*%
D10*
%TO.C,SW8*%
X225600000Y-94730000D03*
D11*
X220100000Y-94730000D03*
X231100000Y-94730000D03*
D12*
X220380000Y-98930000D03*
%TD*%
D11*
%TO.C,SW9*%
X250150000Y-94730000D03*
X239150000Y-94730000D03*
D10*
X244650000Y-94730000D03*
D12*
X239430000Y-98930000D03*
%TD*%
D11*
%TO.C,SW10*%
X258200000Y-94730000D03*
D10*
X263700000Y-94730000D03*
D12*
X258480000Y-98930000D03*
D11*
X269200000Y-94730000D03*
%TD*%
%TO.C,SW11*%
X277250000Y-94730000D03*
D10*
X282750000Y-94730000D03*
D11*
X288250000Y-94730000D03*
D12*
X277530000Y-98930000D03*
%TD*%
D11*
%TO.C,SW12*%
X296300000Y-94730000D03*
D12*
X296580000Y-98930000D03*
D10*
X301800000Y-94730000D03*
D11*
X307300000Y-94730000D03*
%TD*%
D10*
%TO.C,SW15*%
X111300000Y-113780000D03*
D11*
X105800000Y-113780000D03*
X116800000Y-113780000D03*
D12*
X106080000Y-117980000D03*
%TD*%
D11*
%TO.C,SW16*%
X124850000Y-113780000D03*
X135850000Y-113780000D03*
D10*
X130350000Y-113780000D03*
D12*
X125130000Y-117980000D03*
%TD*%
D11*
%TO.C,SW17*%
X154900000Y-113780000D03*
D10*
X149400000Y-113780000D03*
D11*
X143900000Y-113780000D03*
D12*
X144180000Y-117980000D03*
%TD*%
%TO.C,SW18*%
X163230000Y-117980000D03*
D11*
X173950000Y-113780000D03*
D10*
X168450000Y-113780000D03*
D11*
X162950000Y-113780000D03*
%TD*%
%TO.C,SW19*%
X182000000Y-113780000D03*
X193000000Y-113780000D03*
D10*
X187500000Y-113780000D03*
D12*
X182280000Y-117980000D03*
%TD*%
D10*
%TO.C,SW20*%
X206550000Y-113780000D03*
D11*
X212050000Y-113780000D03*
X201050000Y-113780000D03*
D12*
X201330000Y-117980000D03*
%TD*%
D11*
%TO.C,SW21*%
X231100000Y-113780000D03*
D10*
X225600000Y-113780000D03*
D11*
X220100000Y-113780000D03*
D12*
X220380000Y-117980000D03*
%TD*%
D11*
%TO.C,SW22*%
X250150000Y-113780000D03*
D10*
X244650000Y-113780000D03*
D11*
X239150000Y-113780000D03*
D12*
X239430000Y-117980000D03*
%TD*%
%TO.C,SW23*%
X258480000Y-117980000D03*
D11*
X258200000Y-113780000D03*
X269200000Y-113780000D03*
D10*
X263700000Y-113780000D03*
%TD*%
%TO.C,SW27*%
X111300000Y-132830000D03*
D11*
X116800000Y-132830000D03*
X105800000Y-132830000D03*
D12*
X106080000Y-137030000D03*
%TD*%
D11*
%TO.C,SW29*%
X143900000Y-132830000D03*
D10*
X149400000Y-132830000D03*
D12*
X144180000Y-137030000D03*
D11*
X154900000Y-132830000D03*
%TD*%
%TO.C,SW30*%
X162950000Y-132830000D03*
D12*
X163230000Y-137030000D03*
D11*
X173950000Y-132830000D03*
D10*
X168450000Y-132830000D03*
%TD*%
%TO.C,SW31*%
X187500000Y-132830000D03*
D11*
X193000000Y-132830000D03*
D12*
X182280000Y-137030000D03*
D11*
X182000000Y-132830000D03*
%TD*%
%TO.C,SW32*%
X212050000Y-132830000D03*
D12*
X201330000Y-137030000D03*
D10*
X206550000Y-132830000D03*
D11*
X201050000Y-132830000D03*
%TD*%
%TO.C,SW33*%
X220100000Y-132830000D03*
D12*
X220380000Y-137030000D03*
D10*
X225600000Y-132830000D03*
D11*
X231100000Y-132830000D03*
%TD*%
D10*
%TO.C,SW34*%
X244650000Y-132830000D03*
D11*
X239150000Y-132830000D03*
X250150000Y-132830000D03*
D12*
X239430000Y-137030000D03*
%TD*%
D10*
%TO.C,SW35*%
X263700000Y-132830000D03*
D12*
X258480000Y-137030000D03*
D11*
X258200000Y-132830000D03*
X269200000Y-132830000D03*
%TD*%
%TO.C,SW36*%
X277250000Y-132830000D03*
X288250000Y-132830000D03*
D12*
X277530000Y-137030000D03*
D10*
X282750000Y-132830000D03*
%TD*%
D11*
%TO.C,SW38*%
X315350000Y-142355000D03*
X326350000Y-142355000D03*
D12*
X315630000Y-146555000D03*
D10*
X320850000Y-142355000D03*
%TD*%
D11*
%TO.C,SW42*%
X143900000Y-151880000D03*
D12*
X144180000Y-156080000D03*
D11*
X154900000Y-151880000D03*
D10*
X149400000Y-151880000D03*
%TD*%
D12*
%TO.C,SW44*%
X182280000Y-156080000D03*
D10*
X187500000Y-151880000D03*
D11*
X193000000Y-151880000D03*
X182000000Y-151880000D03*
%TD*%
D12*
%TO.C,SW45*%
X201330000Y-156080000D03*
D10*
X206550000Y-151880000D03*
D11*
X212050000Y-151880000D03*
X201050000Y-151880000D03*
%TD*%
%TO.C,SW46*%
X220100000Y-151880000D03*
D12*
X220380000Y-156080000D03*
D11*
X231100000Y-151880000D03*
D10*
X225600000Y-151880000D03*
%TD*%
%TO.C,SW47*%
X244650000Y-151880000D03*
D11*
X239150000Y-151880000D03*
X250150000Y-151880000D03*
D12*
X239430000Y-156080000D03*
%TD*%
D11*
%TO.C,SW48*%
X258200000Y-151880000D03*
D10*
X263700000Y-151880000D03*
D12*
X258480000Y-156080000D03*
D11*
X269200000Y-151880000D03*
%TD*%
%TO.C,SW49*%
X277250000Y-151880000D03*
D10*
X282750000Y-151880000D03*
D12*
X277530000Y-156080000D03*
D11*
X288250000Y-151880000D03*
%TD*%
D13*
%TO.C,SW53*%
X104290000Y-154632500D03*
X104290000Y-156632500D03*
X104280000Y-158632500D03*
X108780000Y-154632500D03*
X108780000Y-156632500D03*
X108780000Y-158632500D03*
%TD*%
D11*
%TO.C,SW58*%
X277250000Y-170930000D03*
D10*
X282750000Y-170930000D03*
D12*
X277530000Y-175130000D03*
D11*
X288250000Y-170930000D03*
%TD*%
%TO.C,SW59*%
X307300000Y-170930000D03*
D10*
X301800000Y-170930000D03*
D12*
X296580000Y-175130000D03*
D11*
X296300000Y-170930000D03*
%TD*%
D12*
%TO.C,SW28*%
X125130000Y-137030000D03*
D11*
X124850000Y-132830000D03*
X135850000Y-132830000D03*
D10*
X130350000Y-132830000D03*
%TD*%
D11*
%TO.C,SW1*%
X97750000Y-94730000D03*
D12*
X87030000Y-98930000D03*
D10*
X92250000Y-94730000D03*
D11*
X86750000Y-94730000D03*
%TD*%
%TO.C,SW13*%
X326350000Y-94730000D03*
D10*
X320850000Y-94730000D03*
D12*
X315630000Y-98930000D03*
D11*
X315350000Y-94730000D03*
%TD*%
%TO.C,SW14*%
X97750000Y-113780000D03*
X86750000Y-113780000D03*
D12*
X87030000Y-117980000D03*
D10*
X92250000Y-113780000D03*
%TD*%
D11*
%TO.C,SW25*%
X316825000Y-113780000D03*
D10*
X311325000Y-113780000D03*
D11*
X305825000Y-113780000D03*
D12*
X306105000Y-117980000D03*
%TD*%
D11*
%TO.C,SW24*%
X277250000Y-113780000D03*
X288250000Y-113780000D03*
D12*
X277530000Y-117980000D03*
D10*
X282750000Y-113780000D03*
%TD*%
%TO.C,SW26*%
X92250000Y-132830000D03*
D11*
X97750000Y-132830000D03*
D12*
X87030000Y-137030000D03*
D11*
X86750000Y-132830000D03*
%TD*%
%TO.C,SW37*%
X296300000Y-132830000D03*
D10*
X301800000Y-132830000D03*
D11*
X307300000Y-132830000D03*
D12*
X296580000Y-137030000D03*
%TD*%
%TO.C,SW39*%
X87030000Y-156080000D03*
D10*
X92250000Y-151880000D03*
D11*
X97750000Y-151880000D03*
X86750000Y-151880000D03*
%TD*%
%TO.C,SW50*%
X296300000Y-151880000D03*
X307300000Y-151880000D03*
D12*
X296580000Y-156080000D03*
D10*
X301800000Y-151880000D03*
%TD*%
%TO.C,SW43*%
X168450000Y-151880000D03*
D11*
X162950000Y-151880000D03*
X173950000Y-151880000D03*
D12*
X163230000Y-156080000D03*
%TD*%
%TO.C,SW41*%
X125130000Y-156080000D03*
D11*
X124850000Y-151880000D03*
X135850000Y-151880000D03*
D10*
X130350000Y-151880000D03*
%TD*%
D11*
%TO.C,SW55*%
X135850000Y-170930000D03*
X124850000Y-170930000D03*
D10*
X130350000Y-170930000D03*
D12*
X125130000Y-175130000D03*
%TD*%
D10*
%TO.C,SW52*%
X111300000Y-170930000D03*
D11*
X105800000Y-170930000D03*
X116800000Y-170930000D03*
D12*
X106080000Y-175130000D03*
%TD*%
%TO.C,SW57*%
X258480000Y-175130000D03*
D11*
X258200000Y-170930000D03*
X269200000Y-170930000D03*
D10*
X263700000Y-170930000D03*
%TD*%
D11*
%TO.C,SW60*%
X326350000Y-170930000D03*
D10*
X320850000Y-170930000D03*
D11*
X315350000Y-170930000D03*
D12*
X315630000Y-175130000D03*
%TD*%
D13*
%TO.C,SW40*%
X113812500Y-145107500D03*
X113812500Y-147107500D03*
X113802500Y-149107500D03*
X118302500Y-145107500D03*
X118302500Y-147107500D03*
X118302500Y-149107500D03*
%TD*%
%TO.C,SW54*%
X113812500Y-154632500D03*
X113812500Y-156632500D03*
X113802500Y-158632500D03*
X118302500Y-154632500D03*
X118302500Y-156632500D03*
X118302500Y-158632500D03*
%TD*%
D10*
%TO.C,SW56*%
X206550000Y-170930000D03*
D12*
X201330000Y-175130000D03*
D11*
X201050000Y-170930000D03*
X212050000Y-170930000D03*
%TD*%
D14*
%TO.C,J1*%
X176685000Y-87910000D03*
X184135000Y-87910000D03*
X183460000Y-88610000D03*
X182810000Y-87910000D03*
X182010000Y-87910000D03*
X181610000Y-88610000D03*
X181210000Y-87910000D03*
X180810000Y-88610000D03*
X180010000Y-88610000D03*
X179610000Y-87910000D03*
X179210000Y-88610000D03*
X178810000Y-87910000D03*
X178010000Y-87910000D03*
X177360000Y-88610000D03*
D15*
X175910000Y-89410000D03*
X184910000Y-89410000D03*
X175910000Y-83810000D03*
X184910000Y-83810000D03*
%TD*%
M02*
