M48
; DRILL file {KiCad 6.0.2-378541a8eb~116~ubuntu20.04.1} date Tue 22 Feb 2022 21:10:18 GMT
; FORMAT={-:-/ absolute / inch / decimal}
; #@! TF.CreationDate,2022-02-22T21:10:18+00:00
; #@! TF.GenerationSoftware,Kicad,Pcbnew,6.0.2-378541a8eb~116~ubuntu20.04.1
; #@! TF.FileFunction,Plated,1,2,PTH
FMAT,2
INCH
; #@! TA.AperFunction,Plated,PTH,ViaDrill
T1C0.0157
; #@! TA.AperFunction,Plated,PTH,ComponentDrill
T2C0.0157
; #@! TA.AperFunction,Plated,PTH,ComponentDrill
T3C0.0197
; #@! TA.AperFunction,Plated,PTH,ComponentDrill
T4C0.0472
%
G90
G05
T1
X6.7879Y-6.7702
X6.8101Y-6.6666
X6.8134Y-6.3547
X6.8268Y-6.7758
X6.8324Y-6.8147
X6.8491Y-6.661
X6.8547Y-6.6221
X6.8936Y-6.6165
X6.8992Y-6.5775
X6.9035Y-5.6047
X6.948Y-4.1035
X7.0083Y-4.8512
X7.025Y-6.9707
X7.0307Y-6.9317
X7.0696Y-6.9261
X7.0752Y-6.8871
X7.1142Y-6.8815
X7.1693Y-6.6588
X7.1827Y-6.3521
X7.2579Y-4.8563
X7.3083Y-4.1035
X7.3256Y-6.7673
X7.4177Y-5.6043
T2
X6.9827Y-3.4886
X7.0083Y-3.461
X7.0398Y-3.461
X7.0555Y-3.4886
X7.0713Y-3.461
X7.087Y-3.4886
X7.1185Y-3.4886
X7.1343Y-3.461
X7.15Y-3.4886
X7.1657Y-3.461
X7.1972Y-3.461
X7.2228Y-3.4886
T3
X4.1055Y-6.2454
X4.1059Y-6.0879
X4.1059Y-6.1666
X4.2827Y-6.0879
X4.2827Y-6.1666
X4.2827Y-6.2454
X4.4804Y-5.8704
X4.4804Y-6.2454
X4.4808Y-5.7129
X4.4808Y-5.7916
X4.4808Y-6.0879
X4.4808Y-6.1666
X4.6576Y-5.7129
X4.6576Y-5.7916
X4.6576Y-5.8704
X4.6576Y-6.0879
X4.6576Y-6.1666
X4.6576Y-6.2454
T4
X3.6319Y-3.4972
X3.6319Y-4.2472
X3.6319Y-4.9972
X3.6319Y-5.7472
X3.6319Y-6.4972
X3.8287Y-3.5799
X3.8287Y-4.3299
X3.8287Y-5.0799
X3.8287Y-5.8299
X3.8287Y-6.5799
X4.3819Y-3.4972
X4.3819Y-4.2472
X4.3819Y-4.9972
X4.3819Y-6.4972
X4.5787Y-3.5799
X4.5787Y-4.3299
X4.5787Y-5.0799
X4.5787Y-6.5799
X5.1319Y-3.4972
X5.1319Y-4.2472
X5.1319Y-4.9972
X5.1319Y-5.7472
X5.1319Y-6.4972
X5.3287Y-3.5799
X5.3287Y-4.3299
X5.3287Y-5.0799
X5.3287Y-5.8299
X5.3287Y-6.5799
X5.8819Y-3.4972
X5.8819Y-4.2472
X5.8819Y-4.9972
X5.8819Y-5.7472
X6.0787Y-3.5799
X6.0787Y-4.3299
X6.0787Y-5.0799
X6.0787Y-5.8299
X6.6319Y-3.4972
X6.6319Y-4.2472
X6.6319Y-4.9972
X6.6319Y-5.7472
X6.8287Y-3.5799
X6.8287Y-4.3299
X6.8287Y-5.0799
X6.8287Y-5.8299
X7.3819Y-3.4972
X7.3819Y-4.2472
X7.3819Y-4.9972
X7.3819Y-5.7472
X7.5787Y-3.5799
X7.5787Y-4.3299
X7.5787Y-5.0799
X7.5787Y-5.8299
X8.1319Y-3.4972
X8.1319Y-4.2472
X8.1319Y-4.9972
X8.1319Y-5.7472
X8.1319Y-6.4972
X8.3287Y-3.5799
X8.3287Y-4.3299
X8.3287Y-5.0799
X8.3287Y-5.8299
X8.3287Y-6.5799
X8.8819Y-3.4972
X8.8819Y-4.2472
X8.8819Y-4.9972
X8.8819Y-5.7472
X9.0787Y-3.5799
X9.0787Y-4.3299
X9.0787Y-5.0799
X9.0787Y-5.8299
X9.6319Y-3.4972
X9.6319Y-4.2472
X9.6319Y-4.9972
X9.6319Y-5.7472
X9.8287Y-3.5799
X9.8287Y-4.3299
X9.8287Y-5.0799
X9.8287Y-5.8299
X10.3819Y-3.4972
X10.3819Y-4.2472
X10.3819Y-4.9972
X10.3819Y-5.7472
X10.3819Y-6.4972
X10.5787Y-3.5799
X10.5787Y-4.3299
X10.5787Y-5.0799
X10.5787Y-5.8299
X10.5787Y-6.5799
X11.1319Y-3.4972
X11.1319Y-4.2472
X11.1319Y-4.9972
X11.1319Y-5.7472
X11.1319Y-6.4972
X11.3287Y-3.5799
X11.3287Y-4.3299
X11.3287Y-5.0799
X11.3287Y-5.8299
X11.3287Y-6.5799
X11.8819Y-3.4972
X11.8819Y-4.9972
X11.8819Y-5.7472
X11.8819Y-6.4972
X12.0787Y-3.5799
X12.0787Y-5.0799
X12.0787Y-5.8299
X12.0787Y-6.5799
X12.2569Y-4.2472
X12.4537Y-4.3299
X12.6319Y-3.4972
X12.6319Y-5.3722
X12.6319Y-6.4972
X12.8287Y-3.5799
X12.8287Y-5.4549
X12.8287Y-6.5799
T3
G00X6.9256Y-3.2839
M15
G01X6.9256Y-3.3154
M16
G05
G00X6.9256Y-3.5083
M15
G01X6.9256Y-3.5319
M16
G05
G00X7.2799Y-3.2839
M15
G01X7.2799Y-3.3154
M16
G05
G00X7.2799Y-3.5083
M15
G01X7.2799Y-3.5319
M16
G05
T0
M30
